<svg width="140" height="140" viewBox="0 0 140 140" fill="none" xmlns="http://www.w3.org/2000/svg">
<path opacity="0.6" d="M53.2292 116.666C61.686 116.666 68.5416 109.702 68.5416 101.111V85.5552H53.2292C44.7723 85.5552 37.9167 92.5197 37.9167 101.111C37.9167 109.702 44.7723 116.666 53.2292 116.666Z" fill="#DDD8FF"/>
<path opacity="0.8" d="M37.9167 69.9999C37.9167 61.4078 44.7714 54.4443 53.2292 54.4443H68.5416V85.5555H53.2292C44.7723 85.5555 37.9167 78.591 37.9167 69.9999Z" fill="#DDD8FF"/>
<path d="M37.9167 38.8889C37.9167 30.2969 44.7594 23.3333 53.2292 23.3333H68.5416V54.4445H53.2292C44.7723 54.4445 37.9167 47.48 37.9167 38.8889Z" fill="#DDD8FF"/>
<path opacity="0.8" d="M68.5416 23.3333H83.854C92.3109 23.3333 99.1665 30.2978 99.1665 38.8889C99.1665 47.48 92.3109 54.4445 83.854 54.4445H68.5416V23.3333Z" fill="#DDD8FF"/>
<path opacity="0.6" d="M99.1667 70.0003C99.1667 78.5981 92.3057 85.568 83.8423 85.568C75.3788 85.568 68.5178 78.5981 68.5178 70.0003C68.5178 61.4058 75.3761 54.4386 83.8363 54.4386C92.2964 54.4386 99.1547 61.4058 99.1547 70.0003H99.1667Z" fill="#DDD8FF"/>
</svg>
